<?xml version="1.0" standalone="no"?>
<!DOCTYPE svg PUBLIC "-//W3C//DTD SVG 20010904//EN"
 "http://www.w3.org/TR/2001/REC-SVG-20010904/DTD/svg10.dtd">
<svg version="1.0" xmlns="http://www.w3.org/2000/svg"
 width="100.000000pt" height="104.000000pt" viewBox="0 0 100.000000 104.000000"
 preserveAspectRatio="xMidYMid meet">

<g transform="translate(0.000000,104.000000) scale(0.100000,-0.100000)"
fill="#000000" stroke="none">
<path d="M0 520 l0 -520 500 0 500 0 0 520 0 520 -500 0 -500 0 0 -520z m480
-12 l0 -441 -49 6 c-139 16 -289 148 -333 292 -67 220 33 462 229 552 51 24
131 43 146 36 4 -2 7 -203 7 -445z m205 403 c147 -73 245 -233 245 -402 0 -95
14 -89 -206 -89 l-194 0 0 269 0 268 48 -8 c26 -5 74 -22 107 -38z m209 -577
c-55 -132 -183 -238 -317 -263 l-47 -8 0 153 0 154 189 0 190 0 -15 -36z"/>
</g>
</svg>
