<svg id="Layer_1" data-name="Layer 1" xmlns="http://www.w3.org/2000/svg" viewBox="0 0 623.5689 430.1722">
  <defs>
    <style>
      .cls-1 {
        fill: #e42a31;
      }

      .cls-2, .cls-3 {
        fill: #fff;
      }

      .cls-3 {
        font-size: 65.6356px;
        font-family: CenturyGothic-Bold, Century Gothic;
        font-weight: 700;
      }
    </style>
  </defs>
  <title>LCMadrid</title>
  <rect class="cls-1" width="623.5689" height="430.1722"/>
  <g id="EESTEC">
    <path id="c" class="cls-2" d="M468.07,196.0727c0-22.5612,17.9741-40.87,40.168-40.87A40.3658,40.3658,0,0,1,543.22,175.8164l-12.3345-.0093a30.1008,30.1008,0,0,0-22.6474-10.38c-16.6406,0-30.1248,13.7162-30.1248,30.6456l.0262.06a30.3673,30.3673,0,0,0,30.1308,30.64A29.818,29.818,0,0,0,530.7036,216.57H543.07a40.138,40.138,0,0,1-34.8,20.4129c-22.1813,0-40.2-18.3027-40.2-40.8506Z"/>
    <path id="e3" class="cls-2" d="M451.1406,187.2374a29.9538,29.9538,0,0,0-57.6027-.0358Zm-58.9843,8.8971c0,16.9217,13.5177,30.6384,30.1324,30.6384a29.9027,29.9027,0,0,0,22.4787-10.2046H457.1a40.0841,40.0841,0,0,1-34.8116,20.4149c-22.166,0-40.1681-18.3027-40.1681-40.8487,0-22.5593,18.0021-40.8515,40.1681-40.8515,22.1886,0,40.198,18.2922,40.198,40.8515Z"/>
    <path id="t" class="cls-2" d="M346.3788,216.4992h0a10.37,10.37,0,0,0,10.1887,10.5448c11.466,0,21.1382-3.267,24.0367-7.7548l5.7872,6.8468c-5.7255,6.3726-16.9234,10.6864-29.8239,10.6864a20.2424,20.2424,0,0,1-20.1346-20.3231H336.4l-.049-50.8287v-.0636H307.9287V155.1837h28.4219V114.4352h10.0169v40.7485h15.4538v10.4231H346.4424l-.0749.0636v50.8287Z"/>
    <path id="s" class="cls-2" d="M269.6935,285.5314c4.5226-3.7744,9.4364-7.5524,14.3045-11.271,18.5064-14.1954,37.64-28.8707,37.64-47.1546,0-18.2116-19.0821-32.8193-37.5407-46.97-16.7965-12.8626-34.1433-26.1707-34.1433-39.9734,0-13.69,17.3122-26.9815,34.044-39.8085,7.8777-6.0327,15.8862-12.1606,22.4543-18.6387L293.41,81.7c-4.5945,3.8793-9.5963,7.6784-14.5385,11.4753-18.4381,14.1415-37.5317,28.7771-37.5317,46.9869,0,18.3017,19.1356,32.9618,37.6309,47.133,16.7608,12.8458,34.0422,26.1,34.0422,39.81,0,13.8088-17.3338,27.1213-34.1414,39.9724-7.8381,6.014-15.76,12.0911-22.3364,18.5059Z"/>
    <path id="e2" class="cls-2" d="M235.3015,187.2374a29.9489,29.9489,0,0,0-57.5953-.0358Zm-58.9546,8.8971c0,16.9217,13.4889,30.6384,30.1271,30.6384A29.8413,29.8413,0,0,0,228.93,216.5684H241.293a40.0931,40.0931,0,0,1-34.819,20.4149c-22.19,0-40.1717-18.3027-40.1717-40.8487,0-22.5593,17.9813-40.8515,40.1717-40.8515,22.1837,0,40.1681,18.2922,40.1681,40.8515Z"/>
    <path id="e1" class="cls-2" d="M149.3693,187.2374a29.96,29.96,0,0,0-57.6124-.0358Zm-58.9856,8.8971a30.3884,30.3884,0,0,0,30.1487,30.6384,29.8122,29.8122,0,0,0,22.4356-10.2046h12.3673a40.0966,40.0966,0,0,1-34.8028,20.4149c-22.19,0-40.1832-18.3027-40.1832-40.8487,0-22.5593,17.9934-40.8515,40.1832-40.8515,22.1708,0,40.166,18.2922,40.166,40.8515Z"/>
  </g>
  <text class="cls-3" transform="translate(149.6824 348.472)">LC Madrid</text>
</svg>
